# xmcd CD database file generated by Grip 3.1.4
# 
# Track frame offsets:
#       150
#       16898
#       50428
#       94499
#       115716
#       142370
#       165232
#       189646
#       211256
#       224784
#       236824
#       258771
#       271608
# 
# Disc length: 3842 seconds
# 
# Revision: 2
# Processed by: cddbd v1.5.1PL0 Copyright (c) Steve Scherf et al.
# Submitted via: Grip 3.1.4
# 
DISCID=bd0f000d
DTITLE=David Krakauer - From The Winery - Klezmer Sundays At Tonic
DYEAR=2004
DGENRE=Other
TTITLE0=SoCalled - David Krakauer - Bb Bulgar
TTITLE1=Mikveh - Berogovski Tish Nign - Bagopolier Freylekhs - Liebes Tanz
TTITLE2=Klezmer Madness Quartet - Old Country Madness!
TTITLE3=Pharaoh's Daughter - David Krakauer - West African Niggun
TTITLE4=Meshuge Klezmer Band - Berdichiever Khosid
TTITLE5=David Krakauer - Der Gasn Nign
TTITLE6=Metropolitan Klezmer - Rumanian Medley - Doina, Sirba, Volokh
TTITLE7=The Sway Machinery - Schwier Und Schweigger
TTITLE8=Charm City Klezmer - Lomir Zikh Iberbetn
TTITLE9=The Klezminors - Chusidl
TTITLE10=Margot Leverett - Margot Leverett Trio - Tayere Odessa
TTITLE11=Sophie Solomon - David Krakauer - Electro Taxim
TTITLE12=Pharaoh's Daughter - Confession
EXTD=
EXTT0=
EXTT1=
EXTT2=
EXTT3=
EXTT4=
EXTT5=
EXTT6=
EXTT7=
EXTT8=
EXTT9=
EXTT10=
EXTT11=
EXTT12=
PLAYORDER=
